# xmcd
#
# Track frame offsets: 
#        150
#        11757
#        25646
#        39354
#        58395
#        71890
#        84474
#        99956
#        111917
#        130384
#        144914
#        159407
#
# Disc length: 2408 seconds
#
# Revision: 0
# Processed by: cddbd v1.5.1PL0 Copyright (c) Steve Scherf et al.
# Submitted via: ExactAudioCopy v0.95a4
#
DISCID=9c09660c
DTITLE=Stinson, Mike - Last Fool At The Bar
DYEAR=2005
DGENRE=Country
TTITLE0=Last Fool At The Bar
TTITLE1=Six Pack Of Lonely
TTITLE2=Can't Go Out Anymore
TTITLE3=Another Day Without You
TTITLE4=Tomorrow's Gonna Hurt
TTITLE5=Stranger Here Myself
TTITLE6=Cross Your Mind
TTITLE7=City Girl
TTITLE8=Home In Angeleno - duet with Tony Gilkyson
TTITLE9=Take Out The Trash
TTITLE10=I Got Your Message
TTITLE11=Counting My Lucky Stars
EXTD=
EXTT0=
EXTT1=
EXTT2=
EXTT3=
EXTT4=
EXTT5=
EXTT6=
EXTT7=
EXTT8=
EXTT9=
EXTT10=
EXTT11=
PLAYORDER=
